<svg width="256" height="256" viewBox="0 0 256 256" shape-rendering="geometricPrecision" version="1.1" xmlns="http://www.w3.org/2000/svg"><desc>Created by http://guilds.gw2w2w.com/</desc><rect x="0" y="0" width="256" height="256" fill="none" stroke="none" /><g >
<g fill="rgb(137,85,0)" stroke="rgb(137,85,0)" stroke-width=".05%" stroke-opacity="50%" opacity="0.7"><path d=" M 91.22 20.07 C 102.82 16.52 114.73 12.89 127.01 13.55 C 143.01 12.82 158.97 16.26 173.74 22.28 C 185.04 28.31 196.45 34.45 206.36 42.63 C 216.81 51.45 224.66 62.90 231.04 74.90 C 237.39 86.42 240.79 99.32 243.08 112.19 C 243.94 121.75 243.79 131.40 243.27 140.98 C 241.83 149.46 239.73 157.84 237.05 166.02 C 229.80 186.52 216.79 205.10 199.39 218.24 C 193.08 222.42 186.69 226.52 179.92 229.95 C 170.48 235.43 159.78 238.15 149.19 240.37 C 142.56 241.83 135.75 241.75 129.01 241.76 C 122.30 241.70 115.48 241.91 108.94 240.16 C 101.22 238.68 93.83 235.98 86.28 233.88 C 81.09 230.91 75.43 228.80 70.43 225.49 C 66.83 223.11 63.13 220.89 59.33 218.85 C 55.58 214.86 51.19 211.52 47.46 207.51 C 42.90 202.37 37.71 197.66 34.53 191.46 C 30.27 184.96 27.00 177.90 22.92 171.29 C 20.25 161.55 16.81 151.97 15.49 141.91 C 14.23 128.54 14.37 114.87 17.73 101.81 C 19.83 93.73 22.05 85.54 26.33 78.29 C 29.92 71.10 34.24 64.32 38.71 57.65 C 51.92 40.22 70.55 27.11 91.22 20.07 M 114.62 19.41 C 113.90 23.35 113.34 27.32 113.00 31.32 C 115.96 30.90 118.92 30.51 121.88 30.13 C 120.23 26.54 118.55 22.96 116.84 19.40 C 116.28 19.40 115.18 19.41 114.62 19.41 M 118.54 18.80 C 121.71 22.85 125.38 26.47 129.24 29.85 C 133.52 26.62 137.37 22.87 140.83 18.79 C 133.41 18.38 125.96 18.25 118.54 18.80 M 138.19 30.12 C 141.13 30.56 144.07 31.00 147.01 31.47 C 146.65 27.08 145.98 22.73 144.88 18.47 C 141.60 21.68 139.94 25.98 138.19 30.12 M 91.07 25.69 C 95.20 28.43 99.55 30.82 104.04 32.92 C 106.93 28.81 109.60 24.54 111.85 20.05 C 104.68 20.88 97.73 22.96 91.07 25.69 M 147.17 20.04 C 149.29 24.61 151.87 28.94 154.84 33.01 C 159.62 31.01 164.23 28.57 168.25 25.26 C 161.35 23.06 154.41 20.82 147.17 20.04 M 87.48 25.55 C 87.34 30.09 87.53 34.63 87.81 39.16 C 90.64 38.17 93.47 37.15 96.30 36.13 C 94.23 31.95 91.42 28.16 87.48 25.55 M 163.23 35.84 C 166.03 37.20 168.83 38.55 171.64 39.89 C 172.35 35.35 172.76 30.76 172.53 26.16 C 168.75 28.67 165.82 32.15 163.23 35.84 M 65.52 39.12 C 70.35 40.99 75.40 42.17 80.52 42.91 C 82.57 37.97 84.06 32.81 84.85 27.52 C 78.09 30.81 71.46 34.46 65.52 39.12 M 174.04 27.59 C 174.68 33.20 176.20 38.67 178.59 43.78 C 183.91 42.84 189.16 41.54 194.27 39.79 C 188.32 34.52 181.16 30.96 174.04 27.59 M 113.45 35.70 C 101.26 38.60 88.44 41.48 78.43 49.46 C 70.32 55.20 63.06 62.08 56.59 69.60 C 49.09 78.50 42.67 88.63 40.01 100.08 C 34.67 116.56 34.03 134.62 38.80 151.32 C 41.15 159.96 43.65 168.82 48.90 176.22 C 53.27 182.38 57.74 188.54 63.25 193.75 C 68.72 199.05 75.03 203.36 81.14 207.86 C 88.87 213.51 98.33 215.77 107.39 218.31 C 128.16 223.87 150.53 220.76 170.01 212.15 C 182.06 205.76 192.58 196.70 201.49 186.44 C 206.52 180.03 211.93 173.66 214.96 166.00 C 219.66 153.22 223.53 139.80 222.79 126.03 C 223.32 114.02 219.70 102.42 215.96 91.17 C 211.22 80.04 203.95 70.04 195.09 61.83 C 184.64 50.40 170.85 41.95 155.79 38.25 C 142.18 33.82 127.49 33.39 113.45 35.70 M 62.84 40.51 C 63.59 44.58 64.87 48.53 66.47 52.35 C 68.77 50.63 71.08 48.92 73.38 47.19 C 70.03 44.72 66.52 42.47 62.84 40.51 M 186.26 46.78 C 186.28 47.21 186.30 48.08 186.31 48.52 C 188.55 49.90 190.80 51.28 193.03 52.68 C 194.61 48.74 196.03 44.72 197.01 40.59 C 193.10 42.03 189.49 44.15 186.26 46.78 M 44.97 58.50 C 49.85 58.65 54.73 58.54 59.60 58.33 C 60.33 53.41 60.55 48.44 60.22 43.48 C 54.67 47.99 49.73 53.18 44.97 58.50 M 198.66 42.91 C 198.51 46.60 198.26 50.31 198.50 54.02 C 198.65 55.48 198.61 57.21 199.94 58.18 C 204.59 58.82 209.30 58.37 213.97 58.32 C 209.21 52.85 204.08 47.72 198.66 42.91 M 41.98 60.97 C 44.10 64.77 46.58 68.33 49.17 71.82 C 50.80 69.41 52.41 66.99 54.04 64.58 C 50.26 62.69 46.21 61.36 41.98 60.97 M 204.95 64.61 C 206.60 66.88 208.23 69.15 209.88 71.42 C 212.26 68.01 214.53 64.52 216.56 60.88 C 212.58 61.74 208.70 63.02 204.95 64.61 M 40.72 63.79 C 36.41 69.95 32.76 76.52 28.99 83.02 C 34.41 82.66 39.62 81.09 44.65 79.14 C 43.89 73.90 42.63 68.74 40.72 63.79 M 214.02 78.32 C 218.90 80.48 224.03 82.06 229.31 82.87 C 226.44 75.78 222.22 69.36 217.95 63.05 C 216.12 67.99 214.80 73.10 214.02 78.32 M 217.09 85.27 C 218.63 87.99 220.19 90.71 221.77 93.41 C 225.20 90.71 228.47 87.79 231.44 84.58 C 226.65 84.06 221.81 84.31 217.09 85.27 M 27.44 84.51 C 29.79 88.54 33.46 91.39 37.20 94.05 C 38.55 91.23 39.88 88.40 41.20 85.57 C 36.63 85.04 32.04 84.56 27.44 84.51 M 231.66 88.52 C 228.74 92.73 226.31 97.26 224.23 101.94 C 228.31 104.79 232.56 107.39 237.04 109.58 C 236.46 102.30 234.43 95.25 231.66 88.52 M 21.16 110.17 C 25.75 108.08 30.09 105.51 34.22 102.62 C 32.46 97.80 30.04 93.26 26.97 89.15 C 24.07 95.86 22.39 102.99 21.16 110.17 M 226.20 109.25 C 226.40 112.26 226.61 115.27 226.82 118.28 C 230.48 116.92 234.10 115.44 237.63 113.77 C 237.67 113.24 237.73 112.17 237.76 111.64 C 233.91 110.80 230.06 110.01 226.20 109.25 M 19.66 112.94 C 23.40 115.30 27.37 117.27 31.44 119.02 C 31.88 116.03 32.34 113.05 32.77 110.07 C 28.29 110.45 23.88 111.39 19.66 112.94 M 228.08 127.07 C 230.18 131.84 234.63 134.94 238.39 138.34 C 238.84 130.90 238.84 123.42 238.32 115.98 C 234.70 119.46 230.55 122.61 228.08 127.07 M 20.48 138.80 C 24.26 135.41 27.77 131.75 31.11 127.93 C 27.92 123.85 24.32 120.12 20.53 116.61 C 19.37 123.96 19.40 131.44 20.48 138.80 M 226.95 135.01 C 226.70 137.99 226.45 140.96 226.19 143.94 C 230.38 143.40 234.56 142.77 238.69 141.88 C 235.81 138.10 231.15 136.74 226.95 135.01 M 19.63 141.42 C 23.80 143.18 28.21 144.24 32.71 144.72 C 32.27 141.61 31.80 138.49 31.35 135.38 C 27.36 137.21 23.39 139.13 19.63 141.42 M 225.28 152.42 C 225.37 157.31 228.82 161.40 231.67 165.11 C 234.71 158.83 236.24 151.93 237.01 145.03 C 232.99 147.29 228.64 149.18 225.28 152.42 M 21.13 145.31 C 22.43 152.42 24.31 159.42 26.87 166.19 C 29.87 162.11 32.39 157.71 34.08 152.93 C 29.89 150.19 25.58 147.62 21.13 145.31 M 28.29 167.33 C 28.23 167.96 28.10 169.21 28.04 169.84 C 32.15 169.74 36.25 169.55 40.35 169.28 C 39.30 166.42 38.25 163.56 37.19 160.71 C 34.16 162.83 31.18 165.02 28.29 167.33 M 217.95 168.50 C 222.58 169.17 227.25 169.61 231.93 169.50 C 229.15 165.75 225.53 162.78 221.73 160.13 C 220.46 162.91 219.21 165.71 217.95 168.50 M 214.18 176.55 C 215.13 181.56 216.42 186.49 218.17 191.28 C 222.88 185.41 226.29 178.67 229.66 171.98 C 224.27 172.62 219.05 174.19 214.18 176.55 M 28.95 172.24 C 31.95 179.16 35.37 186.07 40.54 191.66 C 42.45 186.87 43.64 181.84 44.58 176.78 C 39.49 174.89 34.28 173.30 28.95 172.24 M 41.72 194.83 C 45.98 193.79 50.13 192.37 54.24 190.87 C 52.42 188.34 50.60 185.82 48.79 183.28 C 45.93 186.80 43.48 190.64 41.72 194.83 M 204.93 190.32 C 208.80 192.02 212.86 193.27 217.03 193.97 C 214.93 190.29 212.53 186.80 210.02 183.38 C 208.32 185.69 206.62 188.01 204.93 190.32 M 44.66 196.81 C 48.89 202.54 54.43 207.05 59.78 211.66 C 60.24 206.79 60.13 201.91 59.58 197.06 C 54.62 196.60 49.63 196.49 44.66 196.81 M 198.70 211.57 C 204.27 207.14 209.18 201.98 213.79 196.58 C 208.98 196.45 204.18 196.52 199.37 196.69 C 198.66 201.61 198.45 206.59 198.70 211.57 M 66.51 202.72 C 64.83 206.66 63.56 210.77 62.77 214.99 C 66.47 212.92 69.99 210.54 73.37 207.98 C 71.09 206.21 68.80 204.46 66.51 202.72 M 185.65 207.70 C 189.05 210.47 192.75 212.89 196.87 214.44 C 195.77 210.43 194.34 206.54 192.82 202.68 C 190.44 204.36 188.04 206.02 185.65 207.70 M 65.74 216.33 C 71.60 220.99 78.22 224.57 84.87 227.96 C 83.98 222.94 82.69 218.00 81.10 213.16 C 75.83 213.32 70.69 214.58 65.74 216.33 M 177.97 212.22 C 176.08 217.28 174.60 222.50 174.09 227.91 C 180.62 223.99 187.39 220.45 193.52 215.90 C 188.47 214.16 183.26 212.92 177.97 212.22 M 163.12 219.74 C 165.61 222.64 168.07 225.57 170.49 228.54 C 171.05 228.56 172.17 228.61 172.73 228.63 C 172.64 224.21 172.31 219.81 171.62 215.45 C 168.78 216.86 165.95 218.29 163.12 219.74 M 87.42 229.75 C 91.31 227.22 94.11 223.50 96.71 219.74 C 93.89 218.51 91.07 217.31 88.25 216.11 C 87.54 220.62 87.22 225.18 87.42 229.75 M 91.00 230.03 C 97.80 232.40 104.75 234.38 111.87 235.54 C 109.64 231.14 107.10 226.93 104.42 222.80 C 99.52 224.34 95.07 226.93 91.00 230.03 M 147.05 235.67 C 154.31 234.39 161.45 232.45 168.39 229.94 C 164.21 226.93 159.67 224.48 155.01 222.32 C 151.90 226.48 149.23 230.95 147.05 235.67 M 138.18 225.37 C 139.87 228.87 141.53 232.39 143.20 235.91 C 143.74 235.82 144.82 235.65 145.37 235.56 C 146.08 231.77 146.65 227.95 147.02 224.11 C 144.07 224.52 141.12 224.93 138.18 225.37 M 112.98 224.13 C 113.35 228.02 113.90 231.89 114.55 235.75 C 115.15 235.75 116.36 235.75 116.96 235.75 C 118.58 232.32 120.18 228.90 121.82 225.49 C 118.88 225.02 115.93 224.56 112.98 224.13 M 118.51 236.51 C 125.89 236.89 133.27 236.91 140.64 236.44 C 137.29 232.43 133.47 228.82 129.25 225.73 C 125.36 229.01 121.73 232.57 118.51 236.51 Z" /></g>
</g><g >
<g fill="rgb(25,39,0)" stroke="rgb(25,39,0)" stroke-width=".05%" stroke-opacity="50%"><path d=" M 95.38 75.03 C 98.50 71.91 102.30 68.52 107.04 68.87 C 110.86 68.72 115.45 70.50 116.67 74.46 C 118.74 79.80 119.68 85.49 120.74 91.09 C 121.44 100.40 122.92 109.65 122.99 119.00 C 122.95 131.35 123.19 143.70 122.86 156.05 C 122.70 164.70 122.85 173.51 125.24 181.89 C 129.13 193.11 138.22 202.28 149.11 206.83 C 145.82 206.71 142.98 204.88 139.85 204.08 C 141.15 205.18 142.58 206.10 144.02 207.02 C 141.36 210.86 144.53 215.07 145.01 219.08 C 142.94 224.00 138.14 226.59 133.40 228.39 L 133.44 227.09 C 133.83 226.77 134.60 226.11 134.99 225.78 C 137.20 224.01 139.09 221.72 140.06 219.03 C 139.82 213.46 136.60 208.41 136.93 202.74 C 135.97 202.27 135.01 201.81 134.04 201.35 C 132.76 206.43 134.55 211.38 136.55 215.98 C 134.82 213.19 133.13 210.38 131.49 207.55 C 130.25 205.44 131.42 202.95 132.12 200.85 C 127.77 196.87 123.31 192.62 121.20 186.97 C 115.71 173.36 116.71 158.30 116.74 143.91 C 117.12 132.63 117.31 121.33 117.07 110.04 C 116.20 105.73 116.11 100.61 112.34 97.66 C 113.61 101.72 115.02 105.76 115.81 109.95 C 115.89 117.62 115.90 125.30 115.83 132.98 C 115.89 138.29 114.30 143.45 112.39 148.35 C 105.98 161.48 99.92 174.87 96.02 188.97 C 95.40 193.31 94.05 198.20 96.94 202.04 C 98.50 203.98 98.96 207.93 102.06 207.78 C 103.92 208.28 105.21 206.79 105.91 205.32 C 104.88 205.87 103.87 206.44 102.86 207.03 C 99.26 206.36 98.35 202.82 97.43 199.83 C 98.98 199.22 100.54 198.64 102.11 198.07 C 104.21 199.14 106.70 200.03 107.79 202.30 C 110.32 206.72 108.49 212.56 104.76 215.71 L 104.63 215.68 C 98.90 214.76 93.60 211.30 90.67 206.28 C 88.57 197.58 89.60 188.44 92.20 179.94 C 95.28 165.85 102.47 153.26 108.00 140.08 C 113.57 127.82 113.29 113.20 107.71 100.99 C 109.71 109.60 108.99 118.56 107.18 127.13 C 104.73 135.88 98.89 143.12 95.47 151.46 C 87.91 167.09 83.87 184.68 85.18 202.07 C 85.35 208.33 91.36 211.76 95.38 215.66 C 94.99 219.78 99.95 220.64 102.26 223.12 C 101.43 223.90 100.73 225.62 99.37 224.61 C 95.49 223.02 91.93 220.70 88.91 217.80 C 89.11 216.49 89.34 215.19 89.59 213.90 C 86.79 211.54 84.33 208.82 81.92 206.07 C 81.59 189.86 84.62 173.65 90.61 158.58 C 93.47 150.56 96.60 142.58 101.26 135.40 C 106.45 127.45 108.46 117.32 105.62 108.14 C 106.45 116.20 105.69 124.70 102.07 132.04 C 97.96 137.41 92.14 141.38 85.88 143.85 C 78.71 146.75 72.30 151.21 66.22 155.92 C 69.54 151.10 73.25 146.48 77.83 142.79 C 84.01 137.98 90.36 133.36 96.37 128.33 C 102.00 123.37 101.29 115.25 101.63 108.47 C 99.24 112.52 99.38 117.60 96.50 121.43 C 92.65 128.11 85.26 131.05 79.20 135.22 C 74.16 138.32 69.69 142.26 65.72 146.61 C 61.53 151.75 59.71 158.25 57.32 164.31 C 56.06 167.24 55.88 170.46 56.28 173.59 C 55.94 178.53 58.04 183.92 63.08 185.56 C 67.55 186.28 73.10 187.17 76.76 183.80 C 79.33 181.92 78.48 177.69 76.02 176.06 C 72.94 174.72 69.46 175.94 66.83 177.74 C 64.58 179.12 64.64 182.00 63.82 184.23 C 60.94 183.97 58.92 181.64 58.16 179.00 C 57.76 176.63 59.36 174.57 60.85 172.94 C 65.51 168.34 73.14 166.82 79.08 169.67 C 81.19 170.58 84.16 171.43 84.44 174.13 C 84.04 177.87 82.88 181.47 82.12 185.14 C 75.01 192.60 63.16 194.04 53.95 189.93 C 50.79 188.78 49.55 185.48 48.34 182.65 C 44.29 173.79 46.88 163.13 52.28 155.43 C 58.72 147.55 66.16 140.23 75.06 135.19 C 81.76 131.01 89.19 127.43 94.06 120.97 C 97.94 114.64 99.65 107.25 100.60 99.96 C 100.41 96.42 98.81 93.23 97.48 90.02 C 98.18 94.51 99.54 99.02 98.84 103.60 C 98.53 103.91 97.91 104.52 97.60 104.83 C 93.52 104.59 89.40 105.12 85.60 106.68 C 78.06 109.60 69.98 106.00 62.28 107.88 C 59.77 107.75 57.26 108.08 55.13 109.54 C 52.76 110.19 50.75 111.61 48.92 113.21 C 47.71 119.05 53.00 123.18 57.15 126.22 C 60.13 125.14 61.72 122.04 62.61 119.20 C 62.73 117.07 60.61 116.03 58.94 115.33 C 59.86 116.91 60.92 118.43 61.67 120.10 C 61.21 122.62 58.07 125.32 55.54 123.72 C 52.57 122.07 51.12 118.89 49.76 115.95 C 50.92 113.54 52.78 111.64 54.93 110.10 C 55.44 110.07 56.45 110.00 56.95 109.97 C 61.88 109.28 65.95 112.53 68.92 116.06 C 70.62 118.30 69.89 121.29 68.66 123.56 C 64.62 131.25 53.75 132.82 46.40 129.48 C 42.47 125.94 39.52 120.12 41.78 114.87 C 43.60 109.41 48.66 105.96 53.76 103.87 C 59.27 101.63 65.31 103.69 70.98 102.23 C 77.20 100.77 84.22 99.69 88.72 94.69 C 90.84 92.02 92.29 88.87 93.62 85.75 C 91.15 87.56 89.48 90.29 86.77 91.78 C 79.82 95.69 71.85 97.41 63.96 97.95 C 72.23 96.66 80.91 94.18 86.83 87.91 C 90.27 84.04 92.59 79.35 95.38 75.03 M 102.32 74.32 C 98.86 76.57 98.42 81.94 101.20 84.88 C 104.57 89.06 113.47 86.89 112.92 80.96 C 113.31 75.53 106.99 72.11 102.32 74.32 Z" />
<path d=" M 140.94 69.89 C 145.21 68.28 149.89 69.77 153.29 72.57 C 155.55 77.79 157.27 83.48 161.55 87.50 C 165.98 92.70 172.67 94.76 178.36 98.07 C 174.08 97.44 169.78 96.35 166.00 94.17 C 162.78 92.35 160.79 89.12 158.03 86.74 C 160.84 94.27 166.82 101.24 175.10 102.58 C 182.36 103.54 189.76 103.06 197.02 103.90 C 211.24 106.20 218.03 124.93 210.60 136.64 L 210.54 136.77 C 206.51 138.28 202.25 139.12 197.95 139.14 C 194.85 135.94 191.54 132.94 187.88 130.39 C 186.34 129.51 185.75 127.88 185.28 126.28 C 186.27 122.75 186.56 118.76 189.14 115.92 C 191.27 113.61 193.71 111.49 196.60 110.17 C 197.79 110.80 198.99 111.43 200.19 112.06 C 196.79 115.88 196.07 121.17 197.61 125.96 C 198.09 127.98 199.70 129.60 201.84 129.70 C 205.48 129.31 207.19 125.23 206.98 121.97 C 206.54 116.26 202.81 110.69 197.07 109.20 C 192.39 108.51 187.65 108.96 183.00 109.65 C 175.77 110.65 168.47 109.76 161.29 108.76 C 156.30 104.34 153.47 97.71 154.36 91.03 C 152.68 93.34 152.81 96.56 153.45 99.22 C 154.72 108.04 160.13 115.60 165.91 122.11 C 172.93 128.84 181.25 134.02 188.64 140.32 C 190.95 142.30 192.74 144.87 195.30 146.55 C 196.99 146.87 198.71 146.85 200.42 146.93 C 193.85 136.50 183.48 129.54 173.81 122.28 C 185.11 128.45 195.04 136.98 203.00 147.08 C 208.68 149.18 215.25 151.22 218.86 156.43 C 214.72 153.64 210.53 150.71 205.63 149.45 C 198.77 147.95 190.76 148.28 185.36 153.32 C 181.17 156.47 180.12 162.01 180.05 166.94 C 179.74 171.06 180.27 175.62 183.25 178.73 C 186.65 182.04 191.79 182.76 196.29 181.85 C 201.70 181.05 206.14 176.37 206.35 170.85 C 206.59 165.83 206.22 160.71 204.69 155.90 C 206.99 156.14 209.66 157.41 210.23 159.86 C 211.83 165.29 212.71 171.12 211.72 176.74 C 210.24 181.77 207.21 187.08 201.95 188.84 C 195.96 191.00 189.06 191.62 183.13 188.92 C 180.44 187.88 178.60 185.56 176.34 183.89 C 177.08 185.21 177.83 186.53 178.86 187.66 C 180.92 194.38 180.24 201.68 177.32 208.03 C 174.64 212.31 170.72 215.68 168.13 220.01 C 166.54 223.22 172.51 226.08 173.24 222.38 C 172.10 222.51 170.39 223.85 169.71 222.23 C 167.72 220.87 170.16 219.29 171.14 218.24 C 172.97 218.30 174.77 219.43 175.87 220.90 C 177.10 225.65 170.78 230.40 166.78 227.29 C 163.08 225.60 162.27 220.92 163.53 217.39 C 166.02 210.57 172.40 206.01 174.83 199.17 C 175.63 194.85 175.00 190.14 172.74 186.32 C 168.95 179.56 165.02 172.86 160.67 166.44 C 152.91 155.75 146.70 144.01 141.16 132.05 C 139.96 122.74 141.43 113.33 141.04 103.98 C 140.60 99.68 143.29 96.11 144.58 92.21 C 142.62 93.93 141.34 96.21 140.07 98.45 C 139.08 116.60 138.87 134.77 137.47 152.90 C 136.94 161.27 136.70 169.79 138.47 178.04 C 139.73 183.39 142.77 188.73 148.02 190.98 C 150.73 192.50 153.97 191.76 156.69 190.66 C 157.10 189.94 157.52 189.23 157.94 188.52 C 156.84 185.04 153.26 183.85 150.06 185.25 C 151.64 185.27 153.41 184.90 154.55 186.31 C 152.51 186.88 151.41 188.60 150.54 190.37 C 147.73 189.49 145.46 187.54 143.26 185.67 L 143.48 185.37 C 146.13 183.81 147.94 181.16 150.65 179.68 C 154.13 177.45 158.33 176.93 162.37 176.79 C 166.07 178.72 168.09 183.30 169.94 186.97 C 169.12 194.44 164.19 201.05 158.40 205.63 C 152.02 204.32 146.79 200.05 142.93 194.96 C 134.31 184.08 132.23 169.52 132.94 156.02 C 134.07 142.03 135.21 128.05 135.55 114.01 C 135.73 102.30 133.17 90.65 134.15 78.93 C 134.84 75.15 136.85 70.87 140.94 69.89 M 142.38 74.50 C 136.54 76.12 137.10 86.01 142.97 87.00 C 147.00 88.29 152.16 84.46 151.29 80.09 C 151.35 75.81 146.27 72.40 142.38 74.50 M 147.31 119.18 C 149.74 131.86 154.78 143.93 161.19 155.10 C 164.63 162.04 168.40 168.84 172.89 175.17 C 172.72 172.56 172.16 170.00 171.64 167.45 C 171.74 157.87 179.08 149.37 188.36 147.42 C 185.30 144.28 181.20 142.58 177.40 140.55 C 172.06 137.64 166.95 134.32 161.94 130.88 C 160.02 129.50 157.65 128.34 156.76 126.00 C 154.03 120.21 152.54 113.97 150.72 107.87 C 149.72 104.96 150.05 101.84 149.72 98.84 C 149.01 100.14 149.22 102.24 147.54 102.75 C 147.47 100.85 147.42 98.95 147.37 97.05 C 144.37 104.08 146.84 111.88 147.31 119.18 Z" />
<path d=" M 212.12 105.86 C 218.08 103.03 225.05 102.42 230.17 97.88 C 229.86 99.20 229.44 100.49 228.91 101.74 C 224.24 104.30 218.40 104.14 214.34 107.85 C 213.59 107.19 212.85 106.53 212.12 105.86 Z" />
<path d=" M 208.67 102.39 C 212.57 100.64 216.78 99.46 221.10 100.07 L 220.11 100.52 C 216.73 101.42 213.29 102.17 210.10 103.66 C 209.35 103.84 208.88 103.42 208.67 102.39 Z" />
<path d=" M 30.12 105.95 C 33.04 100.12 41.85 98.93 46.80 102.65 C 45.23 104.21 43.72 105.84 42.19 107.44 C 40.54 106.38 39.07 104.64 36.95 104.65 C 34.48 104.11 32.55 106.59 30.12 105.95 Z" />
<path d=" M 147.56 103.23 L 148.51 103.93 C 150.45 111.55 152.18 119.30 155.35 126.53 C 160.83 137.86 166.13 149.29 171.65 160.59 L 171.42 162.30 C 163.62 149.30 157.34 135.43 151.65 121.39 C 149.22 115.65 147.81 109.47 147.56 103.23 Z" />
<path d=" M 202.51 114.07 C 204.58 114.63 202.37 118.21 200.75 117.51 C 201.17 116.29 201.60 115.02 202.51 114.07 Z" />
<path d=" M 187.99 154.87 C 194.78 148.92 205.14 150.20 212.41 154.58 C 216.74 156.68 219.78 160.42 222.81 164.01 C 224.07 168.52 224.84 173.47 223.13 177.96 C 221.58 183.80 217.98 188.88 217.06 194.91 C 216.55 194.92 215.52 194.93 215.00 194.94 C 212.96 188.74 218.86 184.34 219.40 178.53 C 220.28 173.63 219.92 168.21 217.17 163.94 C 211.46 154.34 198.14 149.82 187.99 154.87 Z" />
<path d=" M 195.65 153.87 C 196.95 154.02 198.27 154.13 199.56 154.39 C 203.56 160.72 204.21 169.07 201.63 176.03 C 201.77 172.00 202.65 167.87 201.26 163.94 C 200.33 160.13 197.90 157.00 195.65 153.87 Z" />
<path d=" M 140.38 181.24 C 144.32 176.21 150.65 173.23 157.00 172.93 C 158.17 173.45 159.28 174.13 160.41 174.76 C 153.15 174.10 145.41 177.00 141.83 183.66 C 141.47 183.05 140.75 181.85 140.38 181.24 Z" />
<path d=" M 182.91 190.52 L 183.91 190.58 C 184.19 194.23 183.81 197.92 181.89 201.12 C 182.50 197.62 183.14 194.09 182.91 190.52 Z" />
<path d=" M 67.17 195.82 C 71.76 195.28 76.50 194.38 80.31 191.59 L 81.94 190.57 C 81.95 192.48 81.12 193.75 79.42 194.37 C 75.06 196.36 70.15 197.27 65.42 196.17 C 65.83 200.78 70.14 203.02 72.68 206.36 C 73.54 208.69 73.86 211.90 71.93 213.82 C 71.62 213.29 70.99 212.23 70.68 211.69 C 70.68 210.56 70.69 209.43 70.71 208.30 C 66.93 204.61 63.33 200.75 59.85 196.79 C 60.45 198.90 61.25 200.96 62.32 202.88 C 58.12 201.91 58.41 196.82 57.48 193.55 C 60.73 194.18 63.76 196.30 67.17 195.82 Z" /></g>
<g fill="rgb(25,39,0)" stroke="rgb(25,39,0)" stroke-width=".05%" stroke-opacity="50%"><path d=" M 115.95 42.57 C 124.00 41.34 132.32 41.52 140.20 43.65 C 144.12 44.95 148.01 47.34 149.77 51.23 C 153.24 57.75 153.44 65.35 153.29 72.57 C 149.89 69.77 145.21 68.28 140.94 69.89 C 136.85 70.87 134.84 75.15 134.15 78.93 C 133.17 90.65 135.73 102.30 135.55 114.01 C 135.21 128.05 134.07 142.03 132.94 156.02 C 132.23 169.52 134.31 184.08 142.93 194.96 C 146.79 200.05 152.02 204.32 158.40 205.63 C 155.70 207.65 152.26 207.91 149.11 206.83 C 138.22 202.28 129.13 193.11 125.24 181.89 C 122.85 173.51 122.70 164.70 122.86 156.05 C 123.19 143.70 122.95 131.35 122.99 119.00 C 122.92 109.65 121.44 100.40 120.74 91.09 C 119.68 85.49 118.74 79.80 116.67 74.46 C 115.45 70.50 110.86 68.72 107.04 68.87 C 102.30 68.52 98.50 71.91 95.38 75.03 C 97.87 70.79 96.68 65.79 97.60 61.18 C 98.46 56.44 99.17 51.27 102.69 47.66 C 106.19 44.22 111.26 43.20 115.95 42.57 Z" />
<path d=" M 86.77 91.78 C 89.48 90.29 91.15 87.56 93.62 85.75 C 92.29 88.87 90.84 92.02 88.72 94.69 C 84.22 99.69 77.20 100.77 70.98 102.23 C 65.31 103.69 59.27 101.63 53.76 103.87 C 48.66 105.96 43.60 109.41 41.78 114.87 C 39.52 120.12 42.47 125.94 46.40 129.48 C 53.75 132.82 64.62 131.25 68.66 123.56 C 69.89 121.29 70.62 118.30 68.92 116.06 C 65.95 112.53 61.88 109.28 56.95 109.97 C 56.50 109.86 55.59 109.65 55.13 109.54 C 57.26 108.08 59.77 107.75 62.28 107.88 C 65.45 109.87 68.93 111.79 70.93 115.08 C 72.76 120.01 70.64 125.59 67.54 129.54 C 63.08 134.02 55.94 134.08 50.08 133.31 C 43.61 132.79 40.49 126.20 38.01 121.07 C 38.16 116.32 38.65 110.99 42.19 107.44 C 43.72 105.84 45.23 104.21 46.80 102.65 C 51.45 98.43 58.09 98.59 63.96 97.95 C 71.85 97.41 79.82 95.69 86.77 91.78 Z" />
<path d=" M 158.03 86.74 C 160.79 89.12 162.78 92.35 166.00 94.17 C 169.78 96.35 174.08 97.44 178.36 98.07 C 187.28 100.09 196.94 97.63 205.44 101.68 C 210.03 104.61 213.54 109.02 216.34 113.64 C 219.23 118.88 217.59 125.07 216.41 130.55 C 215.90 133.59 213.31 135.59 210.60 136.64 C 218.03 124.93 211.24 106.20 197.02 103.90 C 189.76 103.06 182.36 103.54 175.10 102.58 C 166.82 101.24 160.84 94.27 158.03 86.74 Z" />
<path d=" M 147.31 119.18 C 146.84 111.88 144.37 104.08 147.37 97.05 C 147.42 98.95 147.47 100.85 147.54 102.75 C 147.55 102.87 147.55 103.11 147.56 103.23 C 147.81 109.47 149.22 115.65 151.65 121.39 C 157.34 135.43 163.62 149.30 171.42 162.30 C 171.20 164.01 171.26 165.76 171.64 167.45 C 172.16 170.00 172.72 172.56 172.89 175.17 C 168.40 168.84 164.63 162.04 161.19 155.10 C 154.78 143.93 149.74 131.86 147.31 119.18 Z" />
<path d=" M 220.11 100.52 C 223.62 100.21 226.84 98.93 230.17 97.88 C 225.05 102.42 218.08 103.03 212.12 105.86 C 211.44 105.12 210.77 104.39 210.10 103.66 C 213.29 102.17 216.73 101.42 220.11 100.52 Z" />
<path d=" M 153.45 99.22 L 153.45 99.21 C 157.33 106.76 163.18 112.96 169.05 118.99 C 170.52 120.24 172.24 121.16 173.81 122.28 C 183.48 129.54 193.85 136.50 200.42 146.93 C 198.71 146.85 196.99 146.87 195.30 146.55 C 192.74 144.87 190.95 142.30 188.64 140.32 C 181.25 134.02 172.93 128.84 165.91 122.11 C 160.13 115.60 154.72 108.04 153.45 99.22 Z" />
<path d=" M 107.71 100.99 C 113.29 113.20 113.57 127.82 108.00 140.08 C 102.47 153.26 95.28 165.85 92.20 179.94 C 89.60 188.44 88.57 197.58 90.67 206.28 C 93.60 211.30 98.90 214.76 104.63 215.68 C 102.15 218.63 98.14 217.46 95.38 215.66 C 91.36 211.76 85.35 208.33 85.18 202.07 C 83.87 184.68 87.91 167.09 95.47 151.46 C 98.89 143.12 104.73 135.88 107.18 127.13 C 108.99 118.56 109.71 109.60 107.71 100.99 Z" />
<path d=" M 96.50 121.43 C 99.38 117.60 99.24 112.52 101.63 108.47 C 101.29 115.25 102.00 123.37 96.37 128.33 C 90.36 133.36 84.01 137.98 77.83 142.79 C 73.25 146.48 69.54 151.10 66.22 155.92 C 61.73 161.07 57.51 166.69 56.28 173.59 C 55.88 170.46 56.06 167.24 57.32 164.31 C 59.71 158.25 61.53 151.75 65.72 146.61 C 69.69 142.26 74.16 138.32 79.20 135.22 C 85.26 131.05 92.65 128.11 96.50 121.43 Z" />
<path d=" M 197.61 125.96 C 196.07 121.17 196.79 115.88 200.19 112.06 C 200.77 112.56 201.93 113.57 202.51 114.07 C 201.60 115.02 201.17 116.29 200.75 117.51 C 199.61 120.30 197.75 122.83 197.61 125.96 Z" />
<path d=" M 185.36 153.32 C 190.76 148.28 198.77 147.95 205.63 149.45 C 210.53 150.71 214.72 153.64 218.86 156.43 C 221.05 158.37 221.94 161.31 222.81 164.01 C 219.78 160.42 216.74 156.68 212.41 154.58 C 205.14 150.20 194.78 148.92 187.99 154.87 C 183.96 157.79 180.90 161.96 180.05 166.94 C 180.12 162.01 181.17 156.47 185.36 153.32 Z" />
<path d=" M 199.56 154.39 C 201.26 154.46 202.91 154.90 204.54 155.38 L 204.69 155.90 C 206.22 160.71 206.59 165.83 206.35 170.85 C 206.14 176.37 201.70 181.05 196.29 181.85 C 198.39 180.25 200.49 178.48 201.63 176.03 C 204.21 169.07 203.56 160.72 199.56 154.39 Z" />
<path d=" M 141.83 183.66 C 145.41 177.00 153.15 174.10 160.41 174.76 C 160.90 175.27 161.88 176.28 162.37 176.79 C 158.33 176.93 154.13 177.45 150.65 179.68 C 147.94 181.16 146.13 183.81 143.48 185.37 C 143.07 184.94 142.24 184.09 141.83 183.66 Z" />
<path d=" M 53.95 189.93 C 63.16 194.04 75.01 192.60 82.12 185.14 C 81.81 187.31 82.49 190.20 80.31 191.59 C 76.50 194.38 71.76 195.28 67.17 195.82 C 63.76 196.30 60.73 194.18 57.48 193.55 C 56.31 192.33 55.12 191.14 53.95 189.93 Z" />
<path d=" M 178.86 187.66 C 180.43 188.24 181.90 189.15 182.91 190.52 C 183.14 194.09 182.50 197.62 181.89 201.12 C 181.49 204.01 179.56 206.31 177.32 208.03 C 180.24 201.68 180.92 194.38 178.86 187.66 Z" />
<path d=" M 59.85 196.79 C 63.33 200.75 66.93 204.61 70.71 208.30 C 70.69 209.43 70.68 210.56 70.68 211.69 C 69.80 207.29 65.70 205.20 62.32 202.88 C 61.25 200.96 60.45 198.90 59.85 196.79 Z" />
<path d=" M 134.04 201.35 C 135.01 201.81 135.97 202.27 136.93 202.74 C 136.60 208.41 139.82 213.46 140.06 219.03 C 139.09 221.72 137.20 224.01 134.99 225.78 C 136.70 222.85 137.26 219.29 136.55 215.98 C 134.55 211.38 132.76 206.43 134.04 201.35 Z" /></g>


</g></svg>